<svg width="32" height="32" viewBox="0 0 32 32" fill="none" xmlns="http://www.w3.org/2000/svg">
  <!-- Kerna Favicon - Simplified mark for small sizes -->
  <g id="favicon">
    <!-- Outer corners -->
    <path d="M4 4 L4 8 L6 8 L6 6 L8 6 L8 4 Z" fill="#00D9FF"/>
    <path d="M24 4 L24 6 L26 6 L26 8 L28 8 L28 4 Z" fill="#00D9FF"/>
    <path d="M4 24 L4 28 L8 28 L8 26 L6 26 L6 24 Z" fill="#00D9FF"/>
    <path d="M24 26 L24 28 L28 28 L28 24 L26 24 L26 26 Z" fill="#00D9FF"/>
    
    <!-- Central core -->
    <rect x="13" y="13" width="6" height="6" fill="#00D9FF"/>
    
    <!-- Connectors -->
    <rect x="15" y="8" width="2" height="5" fill="#00D9FF"/>
    <rect x="15" y="19" width="2" height="5" fill="#00D9FF"/>
    <rect x="8" y="15" width="5" height="2" fill="#00D9FF"/>
    <rect x="19" y="15" width="5" height="2" fill="#00D9FF"/>
  </g>
</svg>
